<?xml version="1.0" encoding="utf-8"?>
<!-- Generator: Adobe Illustrator 22.0.1, SVG Export Plug-In . SVG Version: 6.00 Build 0)  -->
<svg version="1.1" id="Capa_1" xmlns="http://www.w3.org/2000/svg" xmlns:xlink="http://www.w3.org/1999/xlink" x="0px" y="0px"
	 viewBox="0 0 38.9 29.3" enable-background="new 0 0 38.9 29.3" xml:space="preserve">
<g>
	<path fill="#FF8C00" d="M35.4,4.1c-0.4,0-0.8,0.6-0.8,1.4c0,0.7,0.3,1.4,0.8,1.4c0.4,0,0.8-0.6,0.8-1.4C36.1,4.7,35.8,4.1,35.4,4.1
		z"/>
	<path fill="#FF8C00" d="M35.4,0.4H3.6c-1.7,0-3.1,2.2-3.1,5.1v23.3h32.8V10.5h2.1c1.7,0,3.1-2.2,3.1-5.1S37.1,0.4,35.4,0.4z
		 M32.3,27.7H1.5V5.4c0-2.2,1-4.1,2.1-4.1h29.9c-0.8,0.9-1.3,2.4-1.3,4.1V27.7z M33.3,9.2c0.1,0.1,0.2,0.2,0.3,0.3h-0.3V9.2z
		 M35.4,9.5c-1.1,0-2.1-1.9-2.1-4.1s1-4.1,2.1-4.1s2.1,1.9,2.1,4.1S36.5,9.5,35.4,9.5z"/>
</g>
</svg>
