<?xml version="1.0" encoding="utf-8"?>
<!-- Generator: Adobe Illustrator 22.0.1, SVG Export Plug-In . SVG Version: 6.00 Build 0)  -->
<svg version="1.1" id="Capa_1" xmlns="http://www.w3.org/2000/svg" xmlns:xlink="http://www.w3.org/1999/xlink" x="0px" y="0px"
	 viewBox="0 0 9.7 9.7" enable-background="new 0 0 9.7 9.7" xml:space="preserve">
<path fill="#FF8C00" d="M8.2,9.7H1.6C0.7,9.7,0,9,0,8.2V1.5C0,0.7,0.7,0,1.6,0h6.6c0.8,0,1.5,0.7,1.5,1.5v6.6C9.7,9,9.1,9.7,8.2,9.7
	z M1.6,1C1.3,1,1,1.2,1,1.5v6.6c0,0.3,0.2,0.5,0.5,0.5h6.6c0.3,0,0.5-0.2,0.5-0.5V1.5C8.7,1.2,8.5,1,8.2,1H1.6z"/>
</svg>
