<?xml version="1.0" encoding="utf-8"?>
<!-- Generator: Adobe Illustrator 22.0.1, SVG Export Plug-In . SVG Version: 6.00 Build 0)  -->
<svg version="1.1" id="Capa_1" xmlns="http://www.w3.org/2000/svg" xmlns:xlink="http://www.w3.org/1999/xlink" x="0px" y="0px"
	 viewBox="0 0 53.9 34.8" style="enable-background:new 0 0 53.9 34.8;" xml:space="preserve">
<g>
	<path d="M44.6,19.7c0.4,0,0.8,0.3,0.8,0.8v6.3c0,0.3,0.2,0.5,0.5,0.5c0.3,0,0.5-0.2,0.5-0.5v-2.5l0.1,0c0.3,0,0.6,0,0.8,0
		c0.1,0,0.3,0.1,0.4,0.2c0.1,0,0.2,0.1,0.2,0.3v2c0,0.3,0.2,0.5,0.5,0.5s0.5-0.2,0.5-0.5v-1.6l0.1,0c0.3,0,0.6,0,0.7,0
		c0.1,0,0.3,0.2,0.5,0.4c0.1,0.1,0.1,0.2,0.2,0.3v1.3c0,0.3,0.2,0.5,0.5,0.5s0.5-0.2,0.5-0.5v-1h0.3c0.6,0,1,0.4,1,1
		c0,0,0,0.1,0,0.1L52.4,30c0,0.3-0.1,0.7-0.3,1l-1.4,2.4c-0.1,0.2-0.3,0.3-0.4,0.3h-6.3c-0.2,0-0.4-0.1-0.4-0.3l-1.2-2.5l-2.5-4.2
		c-0.1-0.2-0.1-0.6,0.2-0.7c0.2-0.1,0.5-0.1,0.6,0.1l2.4,2.4c0.2,0.2,0.5,0.2,0.7,0c0.1-0.1,0.1-0.2,0.1-0.4v-7.8
		C43.8,20,44.1,19.7,44.6,19.7z M46.3,23.1v-2.7c0-1-0.8-1.8-1.8-1.8c-1,0-1.8,0.8-1.8,1.8v6.5l-1.6-1.6c-0.6-0.6-1.6-0.6-2.1,0
		c-0.5,0.5-0.6,1.3-0.2,1.8l2.5,4.2l1.2,2.4c0.3,0.5,0.8,0.8,1.3,0.8h6.3c0.5,0,1-0.3,1.3-0.8l1.4-2.4c0.2-0.4,0.4-0.9,0.4-1.4
		l0.3-2.7c0.1-1.1-0.7-2.1-1.8-2.2c-0.1,0-0.1,0-0.2,0h-0.6c-0.1-0.1-0.1-0.2-0.2-0.2c-0.2-0.2-0.5-0.6-0.9-0.7
		c-0.4-0.1-0.8-0.1-1.2-0.1l-0.1,0c-0.1-0.3-0.3-0.5-0.6-0.6c-0.2-0.1-0.5-0.2-0.7-0.3C47.1,23.1,46.7,23.1,46.3,23.1L46.3,23.1z"/>
	<path d="M48.3,6H3C1.5,6,0.3,4.8,0.3,3.2v0c0-1.5,1.2-2.7,2.7-2.7h45.4c1.5,0,2.7,1.2,2.7,2.7v0C51.1,4.8,49.9,6,48.3,6z"/>
	<g>
		<path d="M35.4,8.7c0.9,0,1.7,0.8,1.7,1.7s-0.8,1.7-1.7,1.7h-28c-0.9,0-1.7-0.8-1.7-1.7s0.8-1.7,1.7-1.7H35.4 M35.4,7.7h-28
			c-1.5,0-2.7,1.2-2.7,2.7s1.2,2.7,2.7,2.7h28c1.5,0,2.7-1.2,2.7-2.7S36.9,7.7,35.4,7.7L35.4,7.7z"/>
	</g>
	<g>
		<path d="M35.4,23c0.9,0,1.7,0.8,1.7,1.7c0,0.9-0.8,1.7-1.7,1.7h-28c-0.9,0-1.7-0.8-1.7-1.7c0-0.9,0.8-1.7,1.7-1.7H35.4 M35.4,22
			h-28c-1.5,0-2.7,1.2-2.7,2.7c0,1.5,1.2,2.7,2.7,2.7h28c1.5,0,2.7-1.2,2.7-2.7C38.1,23.2,36.9,22,35.4,22L35.4,22z"/>
	</g>
	<g>
		<path d="M35.4,30.1c0.9,0,1.7,0.8,1.7,1.7s-0.8,1.7-1.7,1.7h-28c-0.9,0-1.7-0.8-1.7-1.7s0.8-1.7,1.7-1.7H35.4 M35.4,29.1h-28
			c-1.5,0-2.7,1.2-2.7,2.7s1.2,2.7,2.7,2.7h28c1.5,0,2.7-1.2,2.7-2.7S36.9,29.1,35.4,29.1L35.4,29.1z"/>
	</g>
	<g>
		<path d="M42.6,15.8c0.9,0,1.7,0.8,1.7,1.7c0,0.9-0.8,1.7-1.7,1.7h-28c-0.9,0-1.7-0.8-1.7-1.7c0-0.9,0.8-1.7,1.7-1.7H42.6
			 M42.6,14.8h-28c-1.5,0-2.7,1.2-2.7,2.7c0,1.5,1.2,2.7,2.7,2.7h28c1.5,0,2.7-1.2,2.7-2.7C45.3,16,44.1,14.8,42.6,14.8L42.6,14.8z"
			/>
	</g>
</g>
</svg>
