<?xml version="1.0" encoding="utf-8"?>
<!-- Generator: Adobe Illustrator 22.0.1, SVG Export Plug-In . SVG Version: 6.00 Build 0)  -->
<svg version="1.1" id="Capa_1" xmlns="http://www.w3.org/2000/svg" xmlns:xlink="http://www.w3.org/1999/xlink" x="0px" y="0px"
	 viewBox="0 0 54.9 31.7" enable-background="new 0 0 54.9 31.7" xml:space="preserve">
<g>
	<path fill="#FF8C00" d="M40.4,30.3h-24V9.8h24V30.3z M17.3,29.3h22V10.8h-22V29.3z"/>
	<rect x="19.3" y="12.9" fill="#FF8C00" width="8.1" height="2.3"/>
	<rect x="19.3" y="15.4" fill="#FF8C00" width="4.7" height="0.7"/>
	<rect x="19.3" y="17.3" fill="#FF8C00" width="3.9" height="0.7"/>
	<rect x="19.3" y="16.4" fill="#FF8C00" width="6.3" height="0.7"/>
	<rect x="31" y="12.9" fill="#FF8C00" width="6.3" height="0.7"/>
	<rect x="19.2" y="20.3" fill="#FF8C00" width="6.3" height="0.7"/>
	<rect x="19.2" y="21.6" fill="#FF8C00" width="18.1" height="0.7"/>
	<rect x="19.2" y="22.8" fill="#FF8C00" width="18.1" height="0.7"/>
	<rect x="19.2" y="24" fill="#FF8C00" width="18.1" height="0.7"/>
	<rect x="19.2" y="25.2" fill="#FF8C00" width="18.1" height="0.7"/>
	<rect x="19.2" y="26.4" fill="#FF8C00" width="18.1" height="0.7"/>
	<rect x="19.2" y="27.6" fill="#FF8C00" width="18.1" height="0.7"/>
	<rect x="33.7" y="13.9" fill="#FF8C00" width="3.6" height="0.7"/>
	<rect x="31.9" y="14.9" fill="#FF8C00" width="5.4" height="0.7"/>
	<rect x="32.4" y="16" fill="#FF8C00" width="4.9" height="0.7"/>
	<rect x="35" y="17" fill="#FF8C00" width="2.4" height="0.7"/>
</g>
</svg>
