<?xml version="1.0" encoding="utf-8"?>
<!-- Generator: Adobe Illustrator 22.0.1, SVG Export Plug-In . SVG Version: 6.00 Build 0)  -->
<svg version="1.1" id="Capa_1" xmlns="http://www.w3.org/2000/svg" xmlns:xlink="http://www.w3.org/1999/xlink" x="0px" y="0px"
	 viewBox="0 0 54.9 31.7" enable-background="new 0 0 54.9 31.7" xml:space="preserve">
<path fill="#FF8C00" d="M53.2,17.4c-0.7-1.7-1.8-3.1-3.2-4.2c-1.5-1.2-3.3-1.9-5.3-2c-0.4,0-0.7-0.1-1.1-0.1l-0.1,0l-0.1-0.3
	c-0.1-1-0.3-2.1-0.7-3.1c-0.4-1-0.9-1.9-1.4-2.6c-0.8-1-1.7-1.9-2.8-2.6c-1.4-0.9-2.9-1.5-4.5-1.7c-1.1-0.2-2.3-0.1-3.4,0.1
	c-1.9,0.4-3.7,1.2-5.2,2.6c-1.5,1.3-2.5,3-3.2,5C22.2,8.7,22.1,9,22,9.2c-0.2-0.1-0.4-0.2-0.6-0.3c-0.5-0.3-1-0.6-1.6-0.8
	c-1.9-0.8-3.8-0.7-5.6,0.1c-2.6,1.2-4.1,3.3-4.4,6.1c-0.1,0.6,0,1.2,0,1.7c0,0.1,0,0.2,0,0.3c-0.2,0-0.4,0-0.6,0
	c-1.1-0.1-2,0-2.9,0.3c-1.7,0.5-3.1,1.4-4,2.8c-1.5,2.2-1.8,4.6-0.8,7C2.6,29.2,5.3,31,8.3,31h6.3l28.4,0c0.7,0,1.4,0,2-0.1
	c1.3-0.1,2.6-0.5,3.8-1.2c1.5-0.9,2.8-2.1,3.7-3.6c0.9-1.4,1.3-3.1,1.4-4.8C54,20,53.8,18.7,53.2,17.4z"/>
</svg>
