<?xml version="1.0" encoding="utf-8"?>
<!-- Generator: Adobe Illustrator 22.0.1, SVG Export Plug-In . SVG Version: 6.00 Build 0)  -->
<svg version="1.1" id="Capa_2" xmlns="http://www.w3.org/2000/svg" xmlns:xlink="http://www.w3.org/1999/xlink" x="0px" y="0px"
	 viewBox="0 0 40.6 42.6" style="enable-background:new 0 0 40.6 42.6;" xml:space="preserve">
<style type="text/css">
	.st0{fill:#FF8C00;}
</style>
<g>
	<path class="st0" d="M22,21.3c-1.2,0-2.2,1-2.2,2.2s1,2.2,2.2,2.2s2.2-1,2.2-2.2S23.2,21.3,22,21.3z M22,24.8
		c-0.7,0-1.3-0.6-1.3-1.3c0-0.7,0.6-1.3,1.3-1.3c0.7,0,1.3,0.6,1.3,1.3C23.3,24.2,22.7,24.8,22,24.8z"/>
</g>
<path class="st0" d="M31.8,30.6c-0.6-0.8-2.1-0.3-2.2-0.4c-0.1-0.1-0.3-0.4-1.1-0.5c-0.8-0.1-1,0.2-1.1,0.1
	c-0.1-0.1-0.9-0.7-1.9-0.4s-3.1,1.8-3.3,1.9c-0.3,0.1-1.2-0.1-1.5-0.5c-0.3-0.4-1.7-1.7-3.7-1.4s-5.6,2.2-5.6,2.2L14,37
	c0,0,1.4-0.9,1.8-1.1c0.4-0.2,0.5-0.4,1.4,0.1c0.9,0.4,3.6,2.2,5.1,2.1c1.4-0.1,5.9-3.3,7.8-4.5C31.8,32.4,32.3,31.3,31.8,30.6z
	 M27.7,30.7c0.8-0.5,1.2,0,1.2,0s-2.9,1.9-3,2c-0.1,0.1-0.3-0.7-0.3-0.7S26.9,31.2,27.7,30.7z M25,30.5c0.4-0.2,0.9-0.5,1.3-0.4
	c0.4,0.1,0.5,0.2,0.5,0.2s-1.4,0.9-1.7,1c-0.3,0.1-0.4,0.1-0.8,0.1c-0.3,0-0.6-0.1-0.6-0.1S24.6,30.7,25,30.5z M28.8,33.3
	c-1.7,1.1-4.7,3.2-5.7,3.5c-1,0.3-1.2,0.3-3.1-0.7s-3-1.7-3.6-1.6c-0.7,0.1-2,1-2,1l-1.8-3.7c0,0,1.8-0.9,2.7-1.3s1.9-0.7,3.4-0.4
	s0.8,1.2,2.8,1.7s3.4-0.1,3.5,0.7c0.1,0.8-0.3,0.9-2.2,0.8c-1.9-0.1-2.7-0.2-3.4-0.4c-0.8-0.1-0.9,0.7,0,0.9
	c0.9,0.2,1.4,0.4,3.5,0.3c2.1-0.1,1.7,0.2,3.4-0.9s2.4-1.6,3.1-2s1.3-0.9,1.8-0.3C31.5,31.7,30.4,32.2,28.8,33.3z"/>
<path class="st0" d="M27.4,22.6h-1c-0.1-0.5-0.3-1-0.6-1.5l0.7-0.7c0.1-0.1,0.1-0.4,0-0.5l-0.8-0.8c-0.1-0.1-0.4-0.1-0.5,0l-0.7,0.7
	c-0.4-0.3-0.9-0.5-1.5-0.6v-1c0-0.2-0.2-0.4-0.4-0.4h-1.1c-0.2,0-0.4,0.2-0.4,0.4v1c-0.5,0.1-1,0.3-1.5,0.6l-0.7-0.7
	c-0.1-0.1-0.4-0.1-0.5,0l-0.8,0.8c-0.1,0.1-0.1,0.4,0,0.5l0.7,0.7c-0.3,0.4-0.5,0.9-0.6,1.5h-1c-0.2,0-0.4,0.2-0.4,0.4v1.1
	c0,0.2,0.2,0.4,0.4,0.4h1c0.1,0.5,0.3,1,0.6,1.5l-0.7,0.7c-0.1,0.1-0.1,0.4,0,0.5l0.8,0.8c0.1,0.1,0.4,0.1,0.5,0l0.7-0.7
	c0.4,0.3,0.9,0.5,1.5,0.6v1c0,0.2,0.2,0.4,0.4,0.4h1.1c0.2,0,0.4-0.2,0.4-0.4v-1c0.5-0.1,1-0.3,1.5-0.6l0.7,0.7
	c0.1,0.1,0.4,0.1,0.5,0l0.8-0.8c0.1-0.1,0.1-0.4,0-0.5L25.8,26c0.3-0.4,0.5-0.9,0.6-1.5h1c0.2,0,0.4-0.2,0.4-0.4V23
	C27.8,22.8,27.6,22.6,27.4,22.6z M22,27c-1.9,0-3.4-1.5-3.4-3.4s1.5-3.4,3.4-3.4s3.4,1.5,3.4,3.4S23.9,27,22,27z"/>
</svg>
