<?xml version="1.0" encoding="utf-8"?>
<!-- Generator: Adobe Illustrator 22.0.1, SVG Export Plug-In . SVG Version: 6.00 Build 0)  -->
<svg version="1.1" id="Capa_1" xmlns="http://www.w3.org/2000/svg" xmlns:xlink="http://www.w3.org/1999/xlink" x="0px" y="0px"
	 viewBox="0 0 40.6 42.6" enable-background="new 0 0 40.6 42.6" xml:space="preserve">
<g>
	<path fill="#FF8C00" d="M27.8,36.8h-12c-1.8,0-3.2-1.4-3.2-3.2v-12c0-1.8,1.4-3.2,3.2-3.2h12c1.8,0,3.2,1.4,3.2,3.2v12
		C31,35.4,29.5,36.8,27.8,36.8z M15.7,19.4c-1.2,0-2.2,1-2.2,2.2v12c0,1.2,1,2.2,2.2,2.2h12c1.2,0,2.2-1,2.2-2.2v-12
		c0-1.2-1-2.2-2.2-2.2H15.7z"/>
	<path fill="#FF8C00" d="M16.7,24.9c-1.2,0-2.1-1-2.1-2.1s1-2.1,2.1-2.1s2.1,1,2.1,2.1S17.8,24.9,16.7,24.9z M16.7,21.6
		c-0.6,0-1.1,0.5-1.1,1.1s0.5,1.1,1.1,1.1s1.1-0.5,1.1-1.1S17.3,21.6,16.7,21.6z"/>
	<path fill="#FF8C00" d="M21.8,24.9c-1.2,0-2.1-1-2.1-2.1s1-2.1,2.1-2.1s2.1,1,2.1,2.1S23,24.9,21.8,24.9z M21.8,21.6
		c-0.6,0-1.1,0.5-1.1,1.1s0.5,1.1,1.1,1.1s1.1-0.5,1.1-1.1S22.4,21.6,21.8,21.6z"/>
	<path fill="#FF8C00" d="M27,24.9c-1.2,0-2.1-1-2.1-2.1s1-2.1,2.1-2.1s2.1,1,2.1,2.1S28.1,24.9,27,24.9z M27,21.6
		c-0.6,0-1.1,0.5-1.1,1.1s0.5,1.1,1.1,1.1s1.1-0.5,1.1-1.1S27.6,21.6,27,21.6z"/>
	<path fill="#FF8C00" d="M16.7,30c-1.2,0-2.1-1-2.1-2.1s1-2.1,2.1-2.1s2.1,1,2.1,2.1S17.8,30,16.7,30z M16.7,26.7
		c-0.6,0-1.1,0.5-1.1,1.1S16,29,16.7,29s1.1-0.5,1.1-1.1S17.3,26.7,16.7,26.7z"/>
	<path fill="#FF8C00" d="M21.8,30c-1.2,0-2.1-1-2.1-2.1s1-2.1,2.1-2.1s2.1,1,2.1,2.1S23,30,21.8,30z M21.8,26.7
		c-0.6,0-1.1,0.5-1.1,1.1s0.5,1.1,1.1,1.1s1.1-0.5,1.1-1.1S22.4,26.7,21.8,26.7z"/>
	<path fill="#FF8C00" d="M27,30c-1.2,0-2.1-1-2.1-2.1s1-2.1,2.1-2.1s2.1,1,2.1,2.1S28.1,30,27,30z M27,26.7c-0.6,0-1.1,0.5-1.1,1.1
		S26.3,29,27,29s1.1-0.5,1.1-1.1S27.6,26.7,27,26.7z"/>
	<path fill="#FF8C00" d="M16.7,35c-1.2,0-2.1-1-2.1-2.1c0-1.2,1-2.1,2.1-2.1s2.1,1,2.1,2.1C18.8,34.1,17.8,35,16.7,35z M16.7,31.8
		c-0.6,0-1.1,0.5-1.1,1.1c0,0.6,0.5,1.1,1.1,1.1s1.1-0.5,1.1-1.1C17.8,32.3,17.3,31.8,16.7,31.8z"/>
	<path fill="#FF8C00" d="M21.8,35c-1.2,0-2.1-1-2.1-2.1c0-1.2,1-2.1,2.1-2.1s2.1,1,2.1,2.1C23.9,34.1,23,35,21.8,35z M21.8,31.8
		c-0.6,0-1.1,0.5-1.1,1.1c0,0.6,0.5,1.1,1.1,1.1s1.1-0.5,1.1-1.1C22.9,32.3,22.4,31.8,21.8,31.8z"/>
	<path fill="#FF8C00" d="M27,35c-1.2,0-2.1-1-2.1-2.1c0-1.2,1-2.1,2.1-2.1s2.1,1,2.1,2.1C29.1,34.1,28.1,35,27,35z M27,31.8
		c-0.6,0-1.1,0.5-1.1,1.1c0,0.6,0.5,1.1,1.1,1.1s1.1-0.5,1.1-1.1C28.1,32.3,27.6,31.8,27,31.8z"/>
</g>
</svg>
